<?xml version="1.0" encoding="UTF-8" standalone="no"?>
<svg
   xmlns:dc="http://purl.org/dc/elements/1.1/"
   xmlns:cc="http://creativecommons.org/ns#"
   xmlns:rdf="http://www.w3.org/1999/02/22-rdf-syntax-ns#"
   xmlns:svg="http://www.w3.org/2000/svg"
   xmlns="http://www.w3.org/2000/svg"
   xmlns:sodipodi="http://sodipodi.sourceforge.net/DTD/sodipodi-0.dtd"
   xmlns:inkscape="http://www.inkscape.org/namespaces/inkscape"
   version="1.1"
   id="svg5296"
   viewBox="0 0 58.767044 72.999998"
   height="73"
   width="58.767044"
   sodipodi:docname="merton.svg"
   inkscape:version="0.92.3 (2405546, 2018-03-11)">
  <sodipodi:namedview
     pagecolor="#ffffff"
     bordercolor="#666666"
     borderopacity="1"
     objecttolerance="10"
     gridtolerance="10"
     guidetolerance="10"
     inkscape:pageopacity="0"
     inkscape:pageshadow="2"
     inkscape:window-width="1366"
     inkscape:window-height="715"
     id="namedview3883"
     showgrid="false"
     fit-margin-top="0"
     fit-margin-left="0"
     fit-margin-right="0"
     fit-margin-bottom="0"
     inkscape:zoom="1.8164978"
     inkscape:cx="166.66687"
     inkscape:cy="44.675745"
     inkscape:window-x="-8"
     inkscape:window-y="-8"
     inkscape:window-maximized="1"
     inkscape:current-layer="layer1" />
  <defs
     id="defs5298">
    <clipPath
       id="clipPath690"
       clipPathUnits="userSpaceOnUse">
      <path
         id="path692"
         d="m 150,4459.902 h 266.667 v 96.013 H 150 Z"
         inkscape:connector-curvature="0" />
    </clipPath>
    <clipPath
       id="clipPath674"
       clipPathUnits="userSpaceOnUse">
      <path
         id="path676"
         d="m 149.999,4459.902 h 266.667 v 96.012 H 149.999 Z"
         inkscape:connector-curvature="0" />
    </clipPath>
    <clipPath
       id="clipPath662"
       clipPathUnits="userSpaceOnUse">
      <path
         id="path664"
         d="m 150,4459.902 h 266.667 v 96.013 H 150 Z"
         inkscape:connector-curvature="0" />
    </clipPath>
    <clipPath
       id="clipPath646"
       clipPathUnits="userSpaceOnUse">
      <path
         id="path648"
         d="m 149.999,4459.902 h 266.667 v 96.012 H 149.999 Z"
         inkscape:connector-curvature="0" />
    </clipPath>
    <clipPath
       id="clipPath590"
       clipPathUnits="userSpaceOnUse">
      <path
         id="path592"
         d="m 150,4459.902 h 266.667 v 96.013 H 150 Z"
         inkscape:connector-curvature="0" />
    </clipPath>
    <clipPath
       id="clipPath558"
       clipPathUnits="userSpaceOnUse">
      <path
         id="path560"
         d="m 149.999,4555.376 v -57.474 c 0,0 2.23,-19.245 38.364,-37.964 v 0 l 0.114,-0.026 c 36.136,18.723 38.362,37.967 38.362,37.967 v 0 l 0.012,0.023 v 57.474 z"
         inkscape:connector-curvature="0" />
    </clipPath>
    <clipPath
       id="clipPath546"
       clipPathUnits="userSpaceOnUse">
      <path
         id="path548"
         d="m 150,4459.902 h 266.667 v 96.013 H 150 Z"
         inkscape:connector-curvature="0" />
    </clipPath>
  </defs>
  <metadata
     id="metadata5301">
    <rdf:RDF>
      <cc:Work
         rdf:about="">
        <dc:format>image/svg+xml</dc:format>
        <dc:type
           rdf:resource="http://purl.org/dc/dcmitype/StillImage" />
        <dc:title></dc:title>
      </cc:Work>
    </rdf:RDF>
  </metadata>
  <g
     transform="translate(-201.90455,-493.6434)"
     id="layer1">
    <g
       id="g65"
       transform="matrix(0.61174252,0,0,0.61174252,78.390953,220.00354)">
      <g
         transform="matrix(1.25,0,0,-1.25,14.405804,6141.5339)"
         id="g542">
        <g
           id="g544"
           clip-path="url(#clipPath546)">
          <g
             id="g550"
             transform="translate(226.839,4497.8794)">
            <path
               inkscape:connector-curvature="0"
               d="m 0,0 c 0,0 -2.226,-19.244 -38.362,-37.967 l -0.114,0.025 C -74.61,-19.223 -76.839,0.023 -76.839,0.023 V 57.498 H 0.011 V 0.023 L 0,0"
               style="fill:#b18f1f;fill-opacity:1;fill-rule:nonzero;stroke:none"
               id="path552" />
          </g>
        </g>
      </g>
      <g
         transform="matrix(1.25,0,0,-1.25,14.405804,6141.5339)"
         id="g554">
        <g
           id="g556"
           clip-path="url(#clipPath558)">
          <g
             id="g562"
             transform="translate(149.8922,4521.7207)">
            <path
               inkscape:connector-curvature="0"
               d="M 0,0 38.501,22.528 V 11.006 L 0,-10.073 Z"
               style="fill:#122657;fill-opacity:1;fill-rule:nonzero;stroke:none"
               id="path564" />
          </g>
          <g
             id="g566"
             transform="translate(188.3936,4544.2441)">
            <path
               inkscape:connector-curvature="0"
               d="M 0,0 38.491,-22.526 V -32.597 L 0,-11.519"
               style="fill:#ed1c24;fill-opacity:1;fill-rule:nonzero;stroke:none"
               id="path568" />
          </g>
          <g
             id="g570"
             transform="translate(188.4099,4512.4741)">
            <path
               inkscape:connector-curvature="0"
               d="m 0,0 36.612,-20.03 c 0,0 1.398,2.938 1.817,5.209 0.175,0.946 0,3.841 0,3.841 L 0,11.516 -0.008,-0.017"
               style="fill:#122657;fill-opacity:1;fill-rule:nonzero;stroke:none"
               id="path572" />
          </g>
          <g
             id="g574"
             transform="translate(188.4015,4512.4741)">
            <path
               inkscape:connector-curvature="0"
               d="m 0,0 -36.577,-20.08 c 0,0 -0.807,1.657 -1.611,4.27 -0.445,1.444 -0.246,4.816 -0.246,4.816 L 0,11.498 V -0.021"
               style="fill:#ed1c24;fill-opacity:1;fill-rule:nonzero;stroke:none"
               id="path576" />
          </g>
          <g
             id="g578"
             transform="translate(188.4099,4492.1851)">
            <path
               inkscape:connector-curvature="0"
               d="m 0,0 25.981,-14.179 c 0,0 3.184,3.008 6.149,6.999 L 0,11.533 -0.008,-0.009"
               style="fill:#ed1c24;fill-opacity:1;fill-rule:nonzero;stroke:none"
               id="path580" />
          </g>
          <g
             id="g582"
             transform="translate(188.4015,4492.189)">
            <path
               inkscape:connector-curvature="0"
               d="m 0,0 -26.066,-14.057 c 0,0 -5.241,5.495 -6.004,6.816 -0.008,0.014 0,0 0,0 L 0,11.52 V 0"
               style="fill:#122657;fill-opacity:1;fill-rule:nonzero;stroke:none"
               id="path584" />
          </g>
        </g>
      </g>
    </g>
  </g>
</svg>
